<?xml version="1.0" encoding="utf-8"?>
<!-- Generator: Adobe Illustrator 23.1.0, SVG Export Plug-In . SVG Version: 6.00 Build 0)  -->
<svg version="1.1" id="Capa_1" xmlns="http://www.w3.org/2000/svg" xmlns:xlink="http://www.w3.org/1999/xlink" x="0px" y="0px"
	 viewBox="0 0 35.7 72.2" style="enable-background:new 0 0 35.7 72.2;" xml:space="preserve">
<style type="text/css">
	.st0{fill:none;stroke:#F06724;stroke-width:2.245;stroke-miterlimit:10;}
	.st1{fill:#F06724;}
</style>
<g id="Rectangle_3" transform="translate(943.545 867.862)">
	<path class="st0" d="M-925.7-865.1L-925.7-865.1c7.4,0,13.4,6,13.4,13.4v40.1c0,7.4-6,13.4-13.4,13.4l0,0c-7.4,0-13.4-6-13.4-13.4
		v-40.1C-939.1-859.2-933.1-865.1-925.7-865.1z"/>
	<path class="st0" d="M-925.7-863.3L-925.7-863.3c6.3,0,11.5,5.1,11.5,11.5v40.1c0,6.3-5.1,11.5-11.5,11.5l0,0
		c-6.3,0-11.5-5.1-11.5-11.5v-40.1C-937.2-858.1-932-863.3-925.7-863.3z"/>
</g>
<path id="Rectangle_4" class="st1" d="M17.9,39L17.9,39c2.1,0,3.8,1.7,3.8,3.8v11.4c0,2.1-1.7,3.8-3.8,3.8l0,0
	c-2.1,0-3.8-1.7-3.8-3.8V42.8C14,40.7,15.7,39,17.9,39z"/>
</svg>
