<?xml version="1.0" encoding="utf-8"?>
<!-- Generator: Adobe Illustrator 23.1.0, SVG Export Plug-In . SVG Version: 6.00 Build 0)  -->
<svg version="1.1" id="Capa_1" xmlns="http://www.w3.org/2000/svg" xmlns:xlink="http://www.w3.org/1999/xlink" x="0px" y="0px"
	 viewBox="0 0 301 316" style="enable-background:new 0 0 301 316;" xml:space="preserve">
<style type="text/css">
	.st0{fill:#F06724;}
</style>
<g>
	<path class="st0" d="M145.5,247.9h-78c-6.2,0-11.3-5-11.3-11.3v-5.3h75.5c1.5,0,2.7-1.2,2.7-2.7c0-1.5-1.2-2.7-2.7-2.7H56.3V69
		h158.4v117.4c0,1.5,1.2,2.7,2.7,2.7c1.5,0,2.7-1.2,2.7-2.7V59.5c0-9.1-7.4-16.6-16.6-16.6H67.6c-9.1,0-16.6,7.4-16.6,16.6v177.1
		c0,9.1,7.4,16.6,16.6,16.6h78c1.5,0,2.7-1.2,2.7-2.7C148.2,249.1,147,247.9,145.5,247.9z M67.6,48.3h135.9
		c6.2,0,11.3,5.1,11.3,11.3v4.2H56.3v-4.2C56.3,53.3,61.4,48.3,67.6,48.3z"/>
	<path class="st0" d="M129.6,236.7c-1.5,0-2.7,1.2-2.7,2.7s1.2,2.7,2.7,2.7h5.9c1.5,0,2.7-1.2,2.7-2.7s-1.2-2.7-2.7-2.7H129.6z"/>
	<path class="st0" d="M121.5,58.6h27.9c1.5,0,2.7-1.2,2.7-2.7c0-1.5-1.2-2.7-2.7-2.7h-27.9c-1.5,0-2.7,1.2-2.7,2.7
		C118.9,57.4,120.1,58.6,121.5,58.6z"/>
	<path class="st0" d="M249,219.2c-0.4-4.1-3.5-11.6-12.2-11.4c-2.1,0.1-3.8,0.5-5.2,1.3v-5.2c0-5.5-6.3-9.3-11.7-9
		c-2.8,0.1-4.9,1.1-6.6,2.3c-0.5-2.1-1.4-3.8-2.9-5.1c-3.2-3-7.6-2.8-9.3-2.7c-0.9,0-3.5-0.1-6.2,1.9l0-27.3
		c-0.3-3.4-3.1-9.8-11.8-9.8c-8.9,0-11.6,6.4-11.8,10v68.8L158,219.3c-2.3-1.9-7.5-3.2-12.5-0.5c-6.2,3.4-7.2,11.3-4,15.2
		c6.3,7.6,14.2,17.5,21.2,26.2c8.7,10.8,16.2,20.2,18.5,22.6c11.3,11.7,27.3,15,42.9,8.7c14.4-5.8,24.8-18.3,24.8-29.8L249,219.2z
		 M243.7,261.7c0,9.2-9.2,19.9-21.5,24.8c-6.5,2.6-23.1,7.1-37.1-7.4c-2.2-2.3-10-12-18.2-22.3c-7-8.7-14.9-18.7-21.2-26.3
		c-0.9-1.1-1-5.2,2.5-7.1c3.1-1.7,5.7-0.6,6.3-0.2l15.4,15.8c1.1,1.2,2.8,1.5,4.3,0.9c1.5-0.6,2.5-2.1,2.5-3.7l0-72
		c0.1-0.8,0.7-4.8,6.5-4.8c5.7,0,6.4,4.1,6.5,4.6v57.3c0,1.5,1.2,2.7,2.7,2.7c1.5,0,2.7-1.2,2.7-2.7l0-21.1c1-3.5,2.9-5.6,6.4-5.7
		c1.3-0.1,3.9-0.2,5.5,1.3c1,0.9,1.5,2.4,1.6,4.5c0.3,9.3,0,20.6,0,20.7c0,1.5,1.1,2.7,2.6,2.7h0.1c1.4,0,2.6-1.1,2.7-2.6
		c0-0.1,0.2-8.4,0.1-16.7c0.5-1.1,2.3-4.2,6.3-4.4c2.9-0.1,6.2,1.9,6.2,3.7v17.3c0,1.5,1.2,2.7,2.7,2.7c1.5,0,2.7-1.2,2.7-2.7
		c0-7.9,3.3-8,5.3-8c5.5-0.2,6.6,5.5,6.8,6.5V261.7z"/>
	<path class="st0" d="M201.5,85.8h-71.9c-1.5,0-2.7,1.2-2.7,2.7c0,1.5,1.2,2.7,2.7,2.7h71.9c1.5,0,2.7-1.2,2.7-2.7
		C204.2,87,203,85.8,201.5,85.8z"/>
	<path class="st0" d="M201.5,105.2h-71.9c-1.5,0-2.7,1.2-2.7,2.7c0,1.5,1.2,2.7,2.7,2.7h71.9c1.5,0,2.7-1.2,2.7-2.7
		C204.2,106.4,203,105.2,201.5,105.2z"/>
	<path class="st0" d="M204.2,127.9c0-1.5-1.2-2.7-2.7-2.7h-71.9c-1.5,0-2.7,1.2-2.7,2.7s1.2,2.7,2.7,2.7h71.9
		C203,130.5,204.2,129.3,204.2,127.9z"/>
	<path class="st0" d="M159.1,148.1c0-1.5-1.2-2.7-2.7-2.7h-26.9c-1.5,0-2.7,1.2-2.7,2.7c0,1.5,1.2,2.7,2.7,2.7h26.9
		C157.9,150.7,159.1,149.6,159.1,148.1z"/>
	<path class="st0" d="M73.6,150.7h38.5c3.7,0,6.7-3,6.7-6.7V92.5c0-3.7-3-6.7-6.7-6.7H73.6c-3.7,0-6.7,3-6.7,6.7V144
		C66.8,147.7,69.9,150.7,73.6,150.7z M72.2,92.5c0-0.8,0.6-1.4,1.4-1.4h38.5c0.8,0,1.4,0.6,1.4,1.4V144c0,0.8-0.6,1.4-1.4,1.4H73.6
		c-0.8,0-1.4-0.6-1.4-1.4V92.5z"/>
	<path class="st0" d="M149.3,169.3h14.4c1.5,0,2.7-1.2,2.7-2.7c0-1.5-1.2-2.7-2.7-2.7h-14.4c-3.5,0-6.4,2.9-6.4,6.4V206
		c0,3.5,2.9,6.4,6.4,6.4h14c1.5,0,2.7-1.2,2.7-2.7c0-1.5-1.2-2.7-2.7-2.7h-14c-0.6,0-1.1-0.5-1.1-1.1v-35.6
		C148.2,169.8,148.7,169.3,149.3,169.3z"/>
	<path class="st0" d="M124.5,166.9H70.4c-1.5,0-2.7,1.2-2.7,2.7s1.2,2.7,2.7,2.7h54.1c1.5,0,2.7-1.2,2.7-2.7S126,166.9,124.5,166.9z
		"/>
	<path class="st0" d="M124.5,186.9H70.4c-1.5,0-2.7,1.2-2.7,2.7c0,1.5,1.2,2.7,2.7,2.7h54.1c1.5,0,2.7-1.2,2.7-2.7
		C127.2,188.1,126,186.9,124.5,186.9z"/>
	<path class="st0" d="M124.5,207.1H70.4c-1.5,0-2.7,1.2-2.7,2.7c0,1.5,1.2,2.7,2.7,2.7h54.1c1.5,0,2.7-1.2,2.7-2.7
		C127.2,208.3,126,207.1,124.5,207.1z"/>
</g>
</svg>
